<svg style="max-height: 500px" xml:space="preserve" xmlns:xlink="http://www.w3.org/1999/xlink" xmlns="http://www.w3.org/2000/svg" version="1.1" viewBox="30.418000000000003 86.714 172.52 42.222" width="172.52" height="42.222"><g id="Layer-1"><path style="fill:#231f20;" d="M91.378,110.982l1.614,1.434c-0.265,0.234 -0.963,0.234 -1.517,0.234c-3.396,0 -4.673,-2.819 -4.673,-5.614c-0,-2.938 1.277,-5.757 4.673,-5.757c3.396,0 4.672,2.819 4.672,5.757c-0,1.738 -0.433,3.007 -1.06,3.852l-1.951,-1.738l-1.758,1.832Zm8.454,4.135l-2.143,-1.903c1.445,-1.597 2.24,-3.759 2.24,-6.178c-0,-4.981 -3.131,-8.858 -8.454,-8.858c-5.323,0 -8.455,3.877 -8.455,8.858c-0,4.839 3.132,8.716 8.455,8.716c1.613,0 3.035,-0.353 4.167,-0.987l2.432,2.161l1.758,-1.809Z"/><path style="fill:#231f20;fill-rule:nonzero;" d="M113.827,103.206l-3.421,0l0,6.367c0,2.467 -0.794,3.477 -2.649,3.477c-1.59,0 -2.192,-0.987 -2.192,-2.984l0,-6.86l-3.42,0l0,7.471c0,3.007 0.915,5.004 4.552,5.004c1.445,0 2.939,-0.658 3.806,-2.02l0.072,0l0,1.691l3.252,0l0,-12.146Z"/><path style="fill:#231f20;" d="M119.943,98.577l-3.42,0l0,2.749l3.42,0l-0,-2.749Zm-3.42,16.775l3.42,-0l-0,-12.146l-3.42,-0l0,12.146Z"/><path style="fill:#231f20;fill-rule:nonzero;" d="M134.468,107.482c-0.217,-3.101 -2.913,-4.605 -5.853,-4.605c-4.046,0 -6.359,2.796 -6.359,6.578c-0,3.642 2.53,6.226 6.287,6.226c3.276,0 5.565,-1.762 5.998,-4.98l-3.3,0c-0.217,1.48 -1.131,2.466 -2.721,2.466c-2.144,0 -2.844,-2.091 -2.844,-3.829c-0,-1.786 0.725,-3.947 2.915,-3.947c1.421,0 2.314,0.728 2.529,2.091l3.348,0Z"/><path style="fill:#231f20;fill-rule:nonzero;" d="M136.779,115.352l3.422,0l0,-4.181l1.324,-1.246l3.42,5.427l4.144,0l-5.228,-7.682l4.697,-4.464l-4.047,0l-4.31,4.37l0,-8.999l-3.422,0l0,16.775Z"/><path style="fill:#231f20;fill-rule:nonzero;" d="M149.57,109.784c-0.049,4.135 3.517,5.968 7.321,5.968c4.674,0 7.155,-2.302 7.155,-5.381c0,-3.805 -3.854,-4.581 -5.107,-4.886c-4.311,-1.081 -5.131,-1.246 -5.131,-2.538c0,-1.409 1.398,-1.902 2.603,-1.902c1.805,0 3.274,0.516 3.395,2.537l3.661,0c0,-3.877 -3.299,-5.404 -6.888,-5.404c-3.108,0 -6.431,1.645 -6.431,5.075c0,3.148 2.576,4.111 5.131,4.769c2.528,0.658 5.105,0.964 5.105,2.773c0,1.715 -2.022,2.09 -3.347,2.09c-2.024,0 -3.806,-0.869 -3.806,-3.101l-3.661,0Z"/><path style="fill:#231f20;" d="M168.742,107.975c0.049,-0.939 0.675,-2.584 2.843,-2.584c1.662,0 2.409,0.892 2.72,2.584l-5.563,0Zm8.984,2.115c0.242,-3.736 -1.806,-7.213 -6.046,-7.213c-3.781,0 -6.357,2.772 -6.357,6.414c0,3.759 2.432,6.39 6.357,6.39c2.819,0 4.866,-1.221 5.83,-4.088l-3.011,0c-0.216,0.752 -1.325,1.574 -2.697,1.574c-1.904,0 -2.963,-0.963 -3.06,-3.077l8.984,0Z"/><path style="fill:#231f20;" d="M183.025,106.941c0.121,-1.315 0.964,-1.832 2.265,-1.832c1.204,0 2.215,0.211 2.215,1.645c0,1.362 -1.952,1.292 -4.046,1.597c-2.121,0.282 -4.24,0.94 -4.24,3.689c0,2.489 1.879,3.641 4.24,3.641c1.516,0 3.107,-0.4 4.191,-1.504c0.023,0.399 0.119,0.799 0.24,1.175l3.469,0c-0.313,-0.493 -0.434,-1.597 -0.434,-2.702l0,-6.32c0,-2.913 -2.986,-3.453 -5.467,-3.453c-2.794,0 -5.661,0.94 -5.853,4.064l3.42,0Zm4.48,3.712c0,0.729 -0.096,2.797 -2.769,2.797c-1.108,0 -2.097,-0.306 -2.097,-1.551c0,-1.222 0.964,-1.574 2.024,-1.786c1.059,-0.188 2.264,-0.211 2.842,-0.705l0,1.245Z"/><rect style="fill:#231f20;" height="16.775" width="3.42" y="98.577" x="193.671"/><path style="fill:#00aeef;fill-rule:nonzero;" d="M33.945,97.884c-0,-4.369 3.541,-7.911 7.91,-7.911l26.369,0c4.369,0 7.91,3.542 7.91,7.911l-0,19.337c-0,4.369 -3.541,7.91 -7.91,7.91l-26.369,0c-4.369,0 -7.91,-3.541 -7.91,-7.91l-0,-19.337Z"/><path style="fill:#403f41;fill-rule:nonzero;" d="M34.626,105.409c5.059,-6.403 14.099,1.203 16.628,16.864c2.205,-3.679 16.403,-12.38 23.539,-8.43c-8.703,-15.483 -22.915,-21.01 -34.646,-13.752c-1.314,0.787 -5.007,4.121 -5.521,5.318"/><path style="fill:#fff;fill-rule:nonzero;" d="M35.169,103.489c5.06,-6.403 14.1,1.203 16.628,16.864c2.206,-3.679 16.403,-12.381 23.54,-8.43c-8.704,-15.483 -22.916,-21.01 -34.647,-13.752c-1.314,0.787 -5.007,4.121 -5.521,5.318"/></g><g id="Marks---Bleeds"><path style="fill:none;fill-rule:nonzero;stroke:#fff;stroke-width:1.25px;" d="M-6,0l-27,0m265.772,0l27,0m-265.772,226.772l-27,0m265.772,0l27,0m-259.772,-232.772l0,-27m0,265.772l0,27m226.772,-265.772l0,-27m0,265.772l0,27"/><path style="fill:none;fill-rule:nonzero;stroke:#000;stroke-width:0.25px;" d="M-6,0l-27,0m265.772,0l27,0m-265.772,226.772l-27,0m265.772,0l27,0m-259.772,-232.772l0,-27m0,265.772l0,27m226.772,-265.772l0,-27m0,265.772l0,27"/></g></svg>