<?xml version="1.0" encoding="UTF-8" standalone="no"?>
<!DOCTYPE svg PUBLIC "-//W3C//DTD SVG 1.1//EN" "http://www.w3.org/Graphics/SVG/1.1/DTD/svg11.dtd">
<svg width="100%" height="100%" viewBox="0 0 212 62" version="1.1" xmlns="http://www.w3.org/2000/svg" xmlns:xlink="http://www.w3.org/1999/xlink" xml:space="preserve" xmlns:serif="http://www.serif.com/" style="fill-rule:evenodd;clip-rule:evenodd;stroke-linejoin:round;stroke-miterlimit:2;">
    <g>
        <path d="M11.249,59.401C9.695,59.038 8.019,58.584 6.783,58.219C6.536,58.151 6.324,58.063 6.112,58.063C3.2,57.995 0.852,55.893 0.852,52.141C0.852,48.237 3.217,45.961 6.218,45.961C9.201,45.961 11.39,48.27 11.39,51.9C11.39,55.127 9.872,57.075 7.63,57.768L7.63,57.838C8.972,58.133 10.437,58.463 11.514,58.637L11.249,59.401ZM10.507,51.952C10.507,49.469 9.13,46.655 6.183,46.655C3.129,46.655 1.734,49.398 1.734,52.125C1.734,54.782 3.305,57.37 6.094,57.37C8.918,57.37 10.507,54.852 10.507,51.952Z" style="fill:rgb(89,90,92);fill-rule:nonzero;"/>
        <path d="M21.46,55.84C21.46,56.571 21.478,57.231 21.531,57.872L20.736,57.872L20.683,56.379L20.648,56.379C20.224,57.161 19.253,58.063 17.753,58.063C16.676,58.063 14.858,57.526 14.858,54.383L14.858,49.538L15.705,49.538L15.705,54.227C15.705,56.032 16.27,57.334 17.947,57.334C19.183,57.334 20.083,56.483 20.454,55.649C20.543,55.389 20.612,55.061 20.612,54.729L20.612,49.538L21.46,49.538L21.46,55.84Z" style="fill:rgb(89,90,92);fill-rule:nonzero;"/>
        <path d="M31.037,55.893C31.037,56.553 31.055,57.231 31.161,57.872L30.384,57.872L30.261,56.674L30.225,56.674C29.801,57.317 28.866,58.063 27.507,58.063C25.794,58.063 25.018,56.883 25.018,55.772C25.018,53.844 26.73,52.682 30.19,52.715L30.19,52.491C30.19,51.672 30.031,50.024 28.019,50.041C27.277,50.041 26.501,50.232 25.883,50.667L25.618,50.059C26.395,49.555 27.348,49.346 28.106,49.346C30.561,49.346 31.037,51.152 31.037,52.629L31.037,55.893ZM30.19,53.409C28.336,53.358 25.9,53.635 25.9,55.631C25.9,56.831 26.712,57.37 27.595,57.37C29.007,57.37 29.819,56.518 30.102,55.702C30.172,55.528 30.19,55.336 30.19,55.198L30.19,53.409Z" style="fill:rgb(89,90,92);fill-rule:nonzero;"/>
        <rect x="35.232" y="45.544" width="0.848" height="12.328" style="fill:rgb(89,90,92);fill-rule:nonzero;"/>
        <path d="M41.53,47.159C41.53,47.54 41.266,47.872 40.825,47.872C40.436,47.872 40.171,47.54 40.171,47.159C40.171,46.777 40.471,46.43 40.86,46.43C41.248,46.43 41.53,46.758 41.53,47.159ZM40.436,57.872L40.436,49.538L41.284,49.538L41.284,57.872L40.436,57.872Z" style="fill:rgb(89,90,92);fill-rule:nonzero;"/>
        <path d="M46.752,47.697L46.752,49.538L49.17,49.538L49.17,50.215L46.752,50.215L46.752,55.631C46.752,56.692 47.087,57.35 47.987,57.35C48.429,57.35 48.747,57.299 48.958,57.231L49.064,57.854C48.782,57.975 48.394,58.063 47.881,58.063C47.264,58.063 46.752,57.872 46.435,57.473C46.046,57.04 45.904,56.327 45.904,55.475L45.904,50.215L44.475,50.215L44.475,49.538L45.904,49.538L45.904,48.009L46.752,47.697Z" style="fill:rgb(89,90,92);fill-rule:nonzero;"/>
        <path d="M57.779,55.893C57.779,56.553 57.797,57.231 57.903,57.872L57.126,57.872L57.003,56.674L56.967,56.674C56.543,57.317 55.608,58.063 54.249,58.063C52.536,58.063 51.76,56.883 51.76,55.772C51.76,53.844 53.472,52.682 56.932,52.715L56.932,52.491C56.932,51.672 56.773,50.024 54.761,50.041C54.02,50.041 53.243,50.232 52.625,50.667L52.36,50.059C53.137,49.555 54.09,49.346 54.849,49.346C57.303,49.346 57.779,51.152 57.779,52.629L57.779,55.893ZM56.932,53.409C55.079,53.358 52.643,53.635 52.643,55.631C52.643,56.831 53.455,57.37 54.337,57.37C55.749,57.37 56.561,56.518 56.844,55.702C56.914,55.528 56.932,55.336 56.932,55.198L56.932,53.409ZM52.925,47.159C52.925,46.811 53.225,46.481 53.596,46.481C53.967,46.481 54.249,46.793 54.249,47.159C54.249,47.506 54.002,47.836 53.561,47.836C53.172,47.836 52.925,47.506 52.925,47.159ZM56.543,47.836C56.155,47.836 55.909,47.506 55.909,47.159C55.909,46.811 56.209,46.481 56.579,46.481C56.95,46.481 57.232,46.793 57.232,47.159C57.232,47.506 56.985,47.836 56.579,47.836L56.543,47.836Z" style="fill:rgb(89,90,92);fill-rule:nonzero;"/>
        <path d="M63.139,47.697L63.139,49.538L65.557,49.538L65.557,50.215L63.139,50.215L63.139,55.631C63.139,56.692 63.474,57.35 64.374,57.35C64.816,57.35 65.134,57.299 65.346,57.231L65.451,57.854C65.168,57.975 64.78,58.063 64.268,58.063C63.65,58.063 63.139,57.872 62.821,57.473C62.433,57.04 62.292,56.327 62.292,55.475L62.292,50.215L60.862,50.215L60.862,49.538L62.292,49.538L62.292,48.009L63.139,47.697Z" style="fill:rgb(89,90,92);fill-rule:nonzero;"/>
        <path d="M73.491,56.586C74.161,57.04 75.097,57.35 76.085,57.35C77.869,57.35 78.963,56.362 78.963,54.92C78.963,53.602 78.274,52.838 76.545,52.178C74.638,51.516 73.491,50.545 73.491,48.948C73.491,47.227 74.921,45.977 76.951,45.977C78.063,45.977 78.91,46.256 79.316,46.534L78.999,47.227C78.68,47.002 77.921,46.672 76.898,46.672C74.974,46.672 74.321,47.888 74.321,48.808C74.321,50.111 75.079,50.772 76.792,51.43C78.751,52.213 79.793,53.081 79.793,54.834C79.793,56.536 78.557,58.063 76.015,58.063C74.991,58.063 73.792,57.733 73.173,57.264L73.491,56.586Z" style="fill:rgb(89,90,92);fill-rule:nonzero;"/>
        <path d="M83.122,49.538L85.346,54.991C85.576,55.581 85.804,56.258 85.963,56.78L86,56.78C86.175,56.274 86.387,55.616 86.652,54.938L88.718,49.538L89.618,49.538L87.076,55.752C86.052,58.34 85.329,59.885 84.216,60.842C83.545,61.397 82.945,61.639 82.733,61.709L82.468,61.016C82.892,60.86 83.457,60.563 83.952,60.094C84.375,59.678 84.94,58.985 85.364,57.995C85.435,57.819 85.469,57.715 85.469,57.629C85.469,57.559 85.435,57.44 85.364,57.264L82.221,49.538L83.122,49.538Z" style="fill:rgb(89,90,92);fill-rule:nonzero;"/>
        <path d="M92.331,56.78C92.789,57.057 93.478,57.35 94.237,57.35C95.578,57.35 96.214,56.639 96.214,55.772C96.214,54.852 95.649,54.364 94.431,53.879C93.037,53.358 92.277,52.612 92.277,51.604C92.277,50.407 93.249,49.346 94.89,49.346C95.667,49.346 96.337,49.573 96.761,49.868L96.443,50.545C96.143,50.336 95.596,50.041 94.749,50.041C93.672,50.041 93.107,50.719 93.107,51.483C93.107,52.35 93.707,52.733 94.855,53.202C96.231,53.723 97.043,54.399 97.043,55.668C97.043,57.09 95.914,58.047 94.184,58.047C93.372,58.047 92.595,57.819 92.03,57.473L92.331,56.78Z" style="fill:rgb(89,90,92);fill-rule:nonzero;"/>
        <path d="M101.892,47.697L101.892,49.538L104.31,49.538L104.31,50.215L101.892,50.215L101.892,55.631C101.892,56.692 102.228,57.35 103.127,57.35C103.569,57.35 103.887,57.299 104.099,57.231L104.204,57.854C103.922,57.975 103.533,58.063 103.021,58.063C102.403,58.063 101.892,57.872 101.574,57.473C101.186,57.04 101.045,56.327 101.045,55.475L101.045,50.215L99.615,50.215L99.615,49.538L101.045,49.538L101.045,48.009L101.892,47.697Z" style="fill:rgb(89,90,92);fill-rule:nonzero;"/>
        <path d="M107.66,53.618C107.66,56.274 109.125,57.334 110.891,57.334C112.126,57.334 112.762,57.09 113.239,56.866L113.45,57.506C113.133,57.682 112.267,58.047 110.784,58.047C108.348,58.047 106.831,56.309 106.831,53.862C106.831,51.082 108.454,49.346 110.644,49.346C113.415,49.346 113.943,51.916 113.943,53.114C113.943,53.34 113.943,53.461 113.909,53.618L107.66,53.618ZM113.061,52.957C113.08,51.795 112.584,50.041 110.538,50.041C108.666,50.041 107.854,51.672 107.695,52.957L113.061,52.957Z" style="fill:rgb(89,90,92);fill-rule:nonzero;"/>
        <path d="M117.555,51.536C117.555,50.772 117.536,50.198 117.485,49.538L118.278,49.538L118.331,51.014L118.367,51.014C118.914,50.059 119.727,49.346 121.12,49.346C122.286,49.346 123.187,50.111 123.557,51.17L123.591,51.17C123.822,50.667 124.14,50.303 124.458,50.041C125.003,49.59 125.569,49.346 126.469,49.346C127.298,49.346 129.242,49.798 129.242,52.957L129.242,57.872L128.394,57.872L128.394,53.045C128.394,51.17 127.652,50.059 126.188,50.059C125.128,50.059 124.299,50.824 123.962,51.707C123.892,51.952 123.822,52.229 123.822,52.526L123.822,57.872L122.975,57.872L122.975,52.663C122.975,51.152 122.252,50.059 120.874,50.059C119.744,50.059 118.844,50.961 118.525,51.934C118.456,52.161 118.402,52.456 118.402,52.733L118.402,57.872L117.555,57.872L117.555,51.536Z" style="fill:rgb(89,90,92);fill-rule:nonzero;"/>
        <path d="M138.438,46.17L139.286,46.17L139.286,52.09L139.339,52.09C139.691,51.639 140.045,51.239 140.363,50.875L144.581,46.17L145.606,46.17L141.087,51.135L146.028,57.872L145.023,57.872L140.504,51.707L139.286,53.028L139.286,57.872L138.438,57.872L138.438,46.17Z" style="fill:rgb(89,90,92);fill-rule:nonzero;"/>
        <path d="M156.118,53.618C156.118,56.727 153.945,58.063 152.057,58.063C149.869,58.063 148.174,56.379 148.174,53.774C148.174,50.926 150.082,49.346 152.182,49.346C154.529,49.346 156.118,51.082 156.118,53.618ZM149.022,53.723C149.022,55.805 150.381,57.37 152.11,57.37C153.877,57.37 155.271,55.805 155.271,53.67C155.271,52.141 154.407,50.041 152.163,50.041C149.994,50.041 149.022,51.934 149.022,53.723Z" style="fill:rgb(89,90,92);fill-rule:nonzero;"/>
        <path d="M159.73,51.536C159.73,50.772 159.711,50.198 159.66,49.538L160.453,49.538L160.506,51.047L160.542,51.047C161.002,50.111 162.076,49.346 163.454,49.346C164.268,49.346 166.421,49.747 166.421,52.872L166.421,57.872L165.573,57.872L165.573,52.942C165.573,51.43 164.972,50.059 163.225,50.059C162.042,50.059 161.019,50.891 160.684,51.969C160.63,52.178 160.578,52.456 160.578,52.715L160.578,57.872L159.73,57.872L159.73,51.536Z" style="fill:rgb(89,90,92);fill-rule:nonzero;"/>
        <path d="M171.813,47.697L171.813,49.538L174.231,49.538L174.231,50.215L171.813,50.215L171.813,55.631C171.813,56.692 172.149,57.35 173.049,57.35C173.491,57.35 173.809,57.299 174.019,57.231L174.125,57.854C173.844,57.975 173.455,58.063 172.944,58.063C172.327,58.063 171.813,57.872 171.496,57.473C171.108,57.04 170.966,56.327 170.966,55.475L170.966,50.215L169.537,50.215L169.537,49.538L170.966,49.538L170.966,48.009L171.813,47.697Z" style="fill:rgb(89,90,92);fill-rule:nonzero;"/>
        <path d="M177.546,52.038C177.546,51.204 177.528,50.354 177.475,49.538L178.251,49.538L178.287,51.222L178.34,51.222C178.71,50.18 179.594,49.346 180.741,49.346C180.864,49.346 180.987,49.364 181.093,49.381L181.093,50.18C180.97,50.146 180.847,50.146 180.688,50.146C179.522,50.146 178.694,51.135 178.463,52.473C178.41,52.715 178.393,52.995 178.393,53.27L178.393,57.872L177.546,57.872L177.546,52.038Z" style="fill:rgb(89,90,92);fill-rule:nonzero;"/>
        <path d="M191.274,53.618C191.274,56.727 189.103,58.063 187.214,58.063C185.026,58.063 183.331,56.379 183.331,53.774C183.331,50.926 185.238,49.346 187.338,49.346C189.685,49.346 191.274,51.082 191.274,53.618ZM184.178,53.723C184.178,55.805 185.537,57.37 187.267,57.37C189.032,57.37 190.427,55.805 190.427,53.67C190.427,52.141 189.562,50.041 187.32,50.041C185.148,50.041 184.178,51.934 184.178,53.723Z" style="fill:rgb(89,90,92);fill-rule:nonzero;"/>
        <rect x="194.885" y="45.544" width="0.848" height="12.328" style="fill:rgb(89,90,92);fill-rule:nonzero;"/>
        <rect x="200.089" y="45.544" width="0.848" height="12.328" style="fill:rgb(89,90,92);fill-rule:nonzero;"/>
        <path d="M205.418,53.618C205.418,56.274 206.882,57.334 208.647,57.334C209.883,57.334 210.519,57.09 210.996,56.866L211.208,57.506C210.89,57.682 210.023,58.047 208.542,58.047C206.106,58.047 204.588,56.309 204.588,53.862C204.588,51.082 206.212,49.346 208.399,49.346C211.171,49.346 211.7,51.916 211.7,53.114C211.7,53.34 211.7,53.461 211.666,53.618L205.418,53.618ZM210.818,52.957C210.836,51.795 210.341,50.041 208.293,50.041C206.424,50.041 205.61,51.672 205.452,52.957L210.818,52.957Z" style="fill:rgb(89,90,92);fill-rule:nonzero;"/>
        <path d="M1.215,13.562C1.215,3.042 7.12,0.561 17.043,0.561L34.708,0.561C44.631,0.561 50.536,3.042 50.536,13.562L50.536,24.28C50.536,34.801 44.631,37.281 34.708,37.281L17.043,37.281C7.12,37.281 1.215,34.801 1.215,24.28L1.215,13.562Z" style="fill:rgb(209,210,211);fill-rule:nonzero;"/>
        <path d="M56.389,13.562C56.389,3.042 62.293,0.561 72.217,0.561L89.881,0.561C99.805,0.561 105.713,3.042 105.713,13.562L105.713,24.28C105.713,25.421 105.664,26.414 105.464,27.407L109.83,30.086L105.265,37.281L101.197,34.948C98.515,36.686 94.695,37.281 89.881,37.281L72.217,37.281C62.293,37.281 56.389,34.801 56.389,24.28L56.389,13.562ZM67.701,20.857C67.701,26.067 68.795,28.052 74.004,28.052L88.097,28.052C88.692,28.052 89.287,28.001 89.783,28.001L89.783,27.903L79.412,21.6L83.977,14.257L94.397,20.659L94.397,16.986C94.397,12.52 93.306,9.79 87.5,9.79L74.599,9.79C68.795,9.79 67.701,12.52 67.701,16.986L67.701,20.857Z" style="fill:rgb(243,109,33);fill-rule:nonzero;"/>
        <path d="M111.712,25.123L122.728,25.123C122.777,28.946 124.315,29.243 127.492,29.243L140.987,29.243C143.32,29.243 145.702,28.995 145.702,26.215C145.702,23.09 144.412,22.891 130.217,22.891C113.647,22.891 111.762,20.907 111.762,12.074C111.762,5.573 112.356,0.561 126.25,0.561L141.631,0.561C154.338,0.561 155.524,4.878 155.524,11.179L155.524,12.322L144.509,12.322C144.509,9.692 144.212,8.6 139.15,8.6L126.943,8.6C124.463,8.6 122.777,9.444 122.777,11.379C122.777,14.505 124.116,14.604 135.925,14.555C153.047,14.505 157.015,15.546 157.015,26.018C157.015,35.693 153.74,37.281 139.102,37.281L125.753,37.281C115.729,37.281 111.712,35.395 111.712,27.606L111.712,25.123Z" style="fill:rgb(243,109,33);fill-rule:nonzero;"/>
        <path d="M162.901,0.836L173.923,0.836L173.923,14.043L179.088,14.043L192.989,0.836L207.983,0.836L188.521,18.412L210.268,36.783L194.677,36.783L178.789,22.98L173.923,22.98L173.923,36.783L162.901,36.783L162.901,0.836Z" style="fill:rgb(243,109,33);fill-rule:nonzero;"/>
    </g>
</svg>
