<?xml version="1.0" encoding="UTF-8"?>
<svg width="180" height="52" viewBox="0 0 180 52" fill="none" xmlns="http://www.w3.org/2000/svg" role="img" aria-label="QSK – Qualität System Kontrolle">
  <!-- Left rounded square mark -->
  <rect x="0" y="4" width="44" height="44" rx="8" fill="#C9CDD1"/>
  <!-- QSK wordmark in orange -->
  <g fill="#FF6B35">
    <!-- Q -->
    <path d="M62 14c-8 0-14 6-14 14s6 14 14 14c3.4 0 6.5-1.1 9-3l4 4 4-4-4-4c1.9-2.5 3-5.6 3-9 0-8-6-14-16-14zm0 6c5.5 0 10 4.5 10 10 0 2-0.6 3.9-1.6 5.5l-2.7-2.7-4 4 2.3 2.3c-1.3.6-2.8.9-4 .9-5.5 0-10-4.5-10-10s4.5-10 10-10z"/>
    <!-- S -->
    <path d="M95 18c-5 0-9 2.8-9 7 0 9 16 5.2 16 10 0 1.4-1.8 2-3.5 2-2.7 0-5.2-1-7.5-2.8l-3.2 3.6C91 41 94.6 42 98.5 42c5.6 0 9.5-2.7 9.5-7.2 0-9.2-16-5.4-16-10 0-1.2 1.5-1.8 3.1-1.8 2.3 0 4.6.8 6.6 2.2l3-3.8C102 19 98.7 18 95 18z"/>
    <!-- K -->
    <path d="M114 18h6v10l10-10h7l-11 11 12 13h-7l-10-11v11h-6V18z"/>
  </g>
</svg>
